<?xml version="1.0" standalone="no"?>
<!DOCTYPE svg PUBLIC "-//W3C//DTD SVG 20010904//EN"
 "http://www.w3.org/TR/2001/REC-SVG-20010904/DTD/svg10.dtd">
<svg version="1.0" xmlns="http://www.w3.org/2000/svg"
 width="900.000000pt" height="539.000000pt" viewBox="0 0 900.000000 539.000000"
 preserveAspectRatio="xMidYMid meet">

<g transform="translate(0.000000,539.000000) scale(0.100000,-0.100000)"
fill="#000000" stroke="none">
<path d="M4235 4899 c-450 -31 -903 -122 -1278 -256 l-97 -35 2 -1232 3 -1231
28 -60 c69 -147 329 -491 459 -608 96 -86 417 -349 810 -664 358 -286 344
-279 432 -216 237 172 1088 901 1230 1054 145 156 273 340 315 454 20 52 20
83 22 1275 1 671 -1 1224 -4 1227 -12 11 -297 106 -432 143 -470 129 -1002
182 -1490 149z m-443 -616 c62 -59 140 -132 173 -163 l60 -55 -50 53 c-28 29
-43 50 -34 47 9 -3 22 1 29 10 7 8 19 15 26 15 8 0 14 5 14 11 0 5 5 7 10 4 6
-3 10 -2 10 3 0 6 12 15 28 21 15 5 53 21 85 34 31 14 57 22 57 20 0 -3 7 1
17 8 9 8 18 13 20 11 2 -2 27 1 56 7 45 9 171 25 202 26 6 0 12 -29 15 -64 l5
-64 80 -3 c44 -1 93 -7 108 -13 16 -6 42 -11 58 -11 16 0 29 -5 29 -11 0 -6 6
-9 14 -6 8 3 22 -1 33 -8 10 -8 25 -15 34 -15 8 0 41 -14 73 -31 l58 -31 -44
-47 c-50 -53 -27 -32 233 212 l156 147 272 0 271 0 -2 -1042 -3 -1043 -32 -92
c-39 -111 -78 -191 -147 -298 -108 -169 -338 -430 -374 -423 -16 3 -17 55 -22
838 -3 459 -6 748 -8 642 -1 -135 -5 -191 -13 -190 -6 2 -13 -5 -14 -14 -2 -9
-13 -27 -25 -40 -13 -13 -20 -16 -16 -8 4 8 1 6 -6 -4 -7 -11 -22 -29 -33 -40
-11 -12 -20 -23 -20 -26 0 -10 -42 -46 -80 -70 -22 -13 -52 -37 -67 -52 -14
-15 -35 -28 -46 -28 -11 0 -25 -6 -31 -14 -17 -20 -135 -59 -139 -46 -2 5 -8
10 -13 10 -5 0 -9 -64 -9 -145 l0 -145 -280 0 -280 0 -2 113 c-1 100 -2 104
-7 43 -5 -61 -8 -67 -20 -53 -7 10 -24 17 -36 17 -12 0 -28 7 -35 15 -7 8 -16
12 -21 9 -5 -3 -23 4 -39 16 -17 12 -37 23 -44 24 -7 1 -25 9 -39 19 -15 9
-30 17 -35 17 -5 0 -21 12 -36 26 -14 15 -26 24 -26 20 0 -4 -12 5 -27 19 -15
14 -31 25 -35 25 -5 0 -8 7 -8 15 0 8 -4 15 -8 15 -16 0 -82 71 -87 93 -3 12
-6 47 -8 77 -2 30 -4 -223 -5 -562 -2 -595 -3 -618 -21 -618 -10 0 -56 39
-102 88 -253 261 -416 541 -449 768 -6 42 -10 457 -10 1057 l0 987 275 0 275
0 112 -107z"/>
<path d="M5279 3473 c-19 -23 -20 -24 -2 -10 21 18 21 18 26 0 3 -12 5 -9 6
10 0 15 0 27 -2 27 -2 0 -14 -12 -28 -27z"/>
<path d="M4793 2515 c0 -22 2 -30 4 -17 2 12 2 30 0 40 -3 9 -5 -1 -4 -23z"/>
</g>
</svg>
